<svg xmlns="http://www.w3.org/2000/svg" id="fig-theme-sample-1col" width="252pt" height="97pt" viewBox="0 0 252 97">
  <g id="frame">
    <rect x="0" y="0" width="252" height="97" fill="#FFFFFF" stroke="none"/>
  </g>
  <g id="nets">
    <g id="nets-data">
      <g id="net-n_a">
        <path id="net-n_a-seg0" d="M30.19 31 L47.96 31" fill="none" stroke="#000000" stroke-width="1.2" stroke-linecap="butt" stroke-linejoin="miter"/>
        <path id="net-n_a-arrow0" d="M52.46 31 L47.96 32.6 L47.96 29.4 Z" fill="#000000" stroke="none"/>
        <path id="net-n_a-slash" d="M35.06 33.12 L39.31 28.88" fill="none" stroke="#000000" stroke-width="0.6"/>
        <text id="net-n_a-width" x="36.74" y="27.38" font-family="Arial, Helvetica, sans-serif" font-size="7" fill="#000000">8</text>
      </g>
      <g id="net-n_b">
        <path id="net-n_b-seg0" d="M30.19 43 L47.96 43" fill="none" stroke="#000000" stroke-width="1.2" stroke-linecap="butt" stroke-linejoin="miter"/>
        <path id="net-n_b-arrow0" d="M52.46 43 L47.96 44.6 L47.96 41.4 Z" fill="#000000" stroke="none"/>
        <path id="net-n_b-slash" d="M35.06 45.12 L39.31 40.88" fill="none" stroke="#000000" stroke-width="0.6"/>
        <text id="net-n_b-width" x="36.74" y="39.38" font-family="Arial, Helvetica, sans-serif" font-size="7" fill="#000000">8</text>
      </g>
      <g id="net-n_c">
        <path id="net-n_c-seg0" d="M30.19 55 L47.96 55" fill="none" stroke="#000000" stroke-width="1.2" stroke-linecap="butt" stroke-linejoin="miter"/>
        <path id="net-n_c-arrow0" d="M52.46 55 L47.96 56.6 L47.96 53.4 Z" fill="#000000" stroke="none"/>
        <path id="net-n_c-slash" d="M35.06 57.12 L39.31 52.88" fill="none" stroke="#000000" stroke-width="0.6"/>
        <text id="net-n_c-width" x="36.74" y="51.38" font-family="Arial, Helvetica, sans-serif" font-size="7" fill="#000000">8</text>
      </g>
      <g id="net-n_d">
        <path id="net-n_d-seg0" d="M30.19 67 L47.96 67" fill="none" stroke="#000000" stroke-width="1.2" stroke-linecap="butt" stroke-linejoin="miter"/>
        <path id="net-n_d-arrow0" d="M52.46 67 L47.96 68.6 L47.96 65.4 Z" fill="#000000" stroke="none"/>
        <path id="net-n_d-slash" d="M35.06 69.12 L39.31 64.88" fill="none" stroke="#000000" stroke-width="0.6"/>
        <text id="net-n_d-width" x="36.74" y="63.38" font-family="Arial, Helvetica, sans-serif" font-size="7" fill="#000000">8</text>
      </g>
      <g id="net-n_m">
        <path id="net-n_m-seg0" d="M57.46 49 L79.08 49" fill="none" stroke="#000000" stroke-width="1.2" stroke-linecap="butt" stroke-linejoin="miter"/>
        <path id="net-n_m-arrow0" d="M83.58 49 L79.08 50.6 L79.08 47.4 Z" fill="#000000" stroke="none"/>
        <path id="net-n_m-slash" d="M62.34 51.12 L66.59 46.88" fill="none" stroke="#000000" stroke-width="0.6"/>
        <text id="net-n_m-width" x="64.02" y="45.38" font-family="Arial, Helvetica, sans-serif" font-size="7" fill="#000000">8</text>
      </g>
      <g id="net-n_r">
        <path id="net-n_r-seg0" d="M99.58 49 L105.58 49 L105.58 62 L116.47 62" fill="none" stroke="#000000" stroke-width="1.2" stroke-linecap="butt" stroke-linejoin="miter"/>
        <path id="net-n_r-seg1" d="M99.58 49 L116.08 49" fill="none" stroke="#000000" stroke-width="1.2" stroke-linecap="butt" stroke-linejoin="miter"/>
        <path id="net-n_r-arrow0" d="M120.97 62 L116.47 63.6 L116.47 60.4 Z" fill="#000000" stroke="none"/>
        <path id="net-n_r-arrow1" d="M120.58 49 L116.08 50.6 L116.08 47.4 Z" fill="#000000" stroke="none"/>
        <circle id="net-n_r-dot0" cx="105.58" cy="49" r="1.5" fill="#000000" stroke="none"/>
        <path id="net-n_r-slash" d="M104.46 51.12 L108.7 46.88" fill="none" stroke="#000000" stroke-width="0.6"/>
        <text id="net-n_r-width" x="106.14" y="45.38" font-family="Arial, Helvetica, sans-serif" font-size="7" fill="#000000">8</text>
      </g>
      <g id="net-n_key">
        <path id="net-n_key-seg0" d="M99.58 72 L116.47 72" fill="none" stroke="#000000" stroke-width="1.2" stroke-linecap="butt" stroke-linejoin="miter"/>
        <path id="net-n_key-arrow0" d="M120.97 72 L116.47 73.6 L116.47 70.4 Z" fill="#000000" stroke="none"/>
        <path id="net-n_key-slash" d="M104.46 74.12 L108.7 69.88" fill="none" stroke="#000000" stroke-width="0.6"/>
        <text id="net-n_key-width" x="106.14" y="68.38" font-family="Arial, Helvetica, sans-serif" font-size="7" fill="#000000">8</text>
      </g>
      <g id="net-n_x">
        <path id="net-n_x-seg0" d="M144.97 67 L162.25 67" fill="none" stroke="#000000" stroke-width="1.2" stroke-linecap="butt" stroke-linejoin="miter"/>
        <path id="net-n_x-arrow0" d="M166.75 67 L162.25 68.6 L162.25 65.4 Z" fill="#000000" stroke="none"/>
        <path id="net-n_x-slash" d="M149.85 69.12 L154.09 64.88" fill="none" stroke="#000000" stroke-width="0.6"/>
        <text id="net-n_x-width" x="151.53" y="63.38" font-family="Arial, Helvetica, sans-serif" font-size="7" fill="#000000">8</text>
      </g>
      <g id="net-n_y">
        <path id="net-n_y-seg0" d="M185.7 67 L202.2 67" fill="none" stroke="#000000" stroke-width="1.2" stroke-linecap="butt" stroke-linejoin="miter"/>
        <path id="net-n_y-arrow0" d="M206.7 67 L202.2 68.6 L202.2 65.4 Z" fill="#000000" stroke="none"/>
        <path id="net-n_y-slash" d="M190.57 69.12 L194.82 64.88" fill="none" stroke="#000000" stroke-width="0.6"/>
        <text id="net-n_y-width" x="192.25" y="63.38" font-family="Arial, Helvetica, sans-serif" font-size="7" fill="#000000">8</text>
      </g>
    </g>
    <g id="nets-control">
      <g id="net-n_sel">
        <path id="net-n_sel-seg0" d="M30.19 19 L54.96 19 L54.96 20.5" fill="none" stroke="#000000" stroke-width="0.6" stroke-linecap="butt" stroke-linejoin="miter" stroke-dasharray="2 1.5"/>
        <path id="net-n_sel-arrow0" d="M54.96 25 L53.36 20.5 L56.56 20.5 Z" fill="#000000" stroke="none"/>
        <path id="net-n_sel-slash" d="M35.06 21.12 L39.31 16.88" fill="none" stroke="#000000" stroke-width="0.6"/>
        <text id="net-n_sel-width" x="36.74" y="15.38" font-family="Arial, Helvetica, sans-serif" font-size="7" fill="#000000">2</text>
      </g>
      <g id="net-n_en">
        <path id="net-n_en-seg0" d="M62.58 10 L91.58 10 L91.58 32.5" fill="none" stroke="#000000" stroke-width="0.6" stroke-linecap="butt" stroke-linejoin="miter" stroke-dasharray="2 1.5"/>
        <path id="net-n_en-arrow0" d="M91.58 37 L89.98 32.5 L93.18 32.5 Z" fill="#000000" stroke="none"/>
      </g>
      <g id="net-n_vi">
        <path id="net-n_vi-seg0" d="M145.75 85 L151.75 85 L151.75 79 L162.25 79" fill="none" stroke="#000000" stroke-width="0.6" stroke-linecap="butt" stroke-linejoin="miter" stroke-dasharray="2 1.5"/>
        <path id="net-n_vi-arrow0" d="M166.75 79 L162.25 80.6 L162.25 77.4 Z" fill="#000000" stroke="none"/>
      </g>
      <g id="net-n_vo">
        <path id="net-n_vo-seg0" d="M185.7 79 L202.2 79" fill="none" stroke="#000000" stroke-width="0.6" stroke-linecap="butt" stroke-linejoin="miter" stroke-dasharray="2 1.5"/>
        <path id="net-n_vo-arrow0" d="M206.7 79 L202.2 80.6 L202.2 77.4 Z" fill="#000000" stroke="none"/>
      </g>
    </g>
  </g>
  <g id="datapath">
    <g id="ports">
      <g id="port-a">
        <text x="23.24" y="33.88" font-family="Arial, Helvetica, sans-serif" font-size="8" fill="#000000">a</text>
      </g>
      <g id="port-b">
        <text x="23.24" y="45.88" font-family="Arial, Helvetica, sans-serif" font-size="8" fill="#000000">b</text>
      </g>
      <g id="port-c">
        <text x="23.69" y="57.88" font-family="Arial, Helvetica, sans-serif" font-size="8" fill="#000000">c</text>
      </g>
      <g id="port-d">
        <text x="23.24" y="69.88" font-family="Arial, Helvetica, sans-serif" font-size="8" fill="#000000">d</text>
      </g>
      <g id="port-sel">
        <text x="17.46" y="21.88" font-family="Arial, Helvetica, sans-serif" font-size="8" fill="#000000">sel</text>
      </g>
      <g id="port-en">
        <text x="51.19" y="12.88" font-family="Arial, Helvetica, sans-serif" font-size="8" fill="#000000">en</text>
      </g>
      <g id="port-key">
        <text x="84.63" y="74.88" font-family="Arial, Helvetica, sans-serif" font-size="8" fill="#000000">key</text>
      </g>
      <g id="port-valid_i">
        <text x="120.58" y="87.88" font-family="Arial, Helvetica, sans-serif" font-size="8" fill="#000000">valid_i</text>
      </g>
      <g id="port-r_q">
        <text x="123.08" y="51.88" font-family="Arial, Helvetica, sans-serif" font-size="8" fill="#000000">r_q</text>
      </g>
      <g id="port-y">
        <text x="209.2" y="69.88" font-family="Arial, Helvetica, sans-serif" font-size="8" fill="#000000">y</text>
      </g>
      <g id="port-valid_o">
        <text x="209.2" y="81.88" font-family="Arial, Helvetica, sans-serif" font-size="8" fill="#000000">valid_o</text>
      </g>
    </g>
    <g id="stage-0">
      <g id="mux-m0">
        <rect id="mux-m0-body" x="52.46" y="25" width="5" height="48" fill="#000000" stroke="none"/>
      </g>
      <g id="reg-r0">
        <rect x="83.58" y="37" width="16" height="24" fill="#D9D9D9" stroke="#000000" stroke-width="0.8"/>
        <path d="M88.58 61 L91.58 56.5 L94.58 61" fill="none" stroke="#000000" stroke-width="0.6" stroke-linejoin="miter"/>
      </g>
      <g id="xor-x0">
        <path d="M120.97 57 Q126.97 67 120.97 77" fill="none" stroke="#000000" stroke-width="0.6" stroke-linejoin="miter"/>
        <path d="M125.97 57 Q135.97 57 144.97 67 Q135.97 77 125.97 77 Q131.97 67 125.97 57 Z" fill="#FFFFFF" stroke="#000000" stroke-width="0.8" stroke-linejoin="miter"/>
        <path d="M120.97 62 L128.22 62 M120.97 72 L128.22 72" fill="none" stroke="#000000" stroke-width="0.6" stroke-linejoin="miter"/>
      </g>
    </g>
    <g id="stage-1">
      <g id="preg-p1">
        <path id="preg-p1-lane0-stub" d="M166.75 67 L172.72 67 M179.72 67 L185.7 67" fill="none" stroke="#000000" stroke-width="1.2" stroke-linecap="butt" stroke-linejoin="miter"/>
        <path id="preg-p1-lane1-stub" d="M166.75 79 L172.72 79 M179.72 79 L185.7 79" fill="none" stroke="#000000" stroke-width="0.6" stroke-linecap="butt" stroke-linejoin="miter" stroke-dasharray="2 1.5"/>
        <rect id="preg-p1-body" x="172.72" y="55" width="7" height="36" fill="#BFBFBF" stroke="#000000" stroke-width="0.8"/>
        <path d="M173.72 91 L176.22 87 L178.72 91" fill="none" stroke="#000000" stroke-width="0.6"/>
        <text x="166.75" y="52" font-family="Arial, Helvetica, sans-serif" font-size="7" fill="#000000">S0|S1</text>
      </g>
    </g>
  </g>
</svg>
