<svg xmlns="http://www.w3.org/2000/svg" id="fig-theme-sample-1col" width="252pt" height="107pt" viewBox="0 0 252 107">
  <g id="frame">
    <rect x="0" y="0" width="252" height="107" fill="#FFFFFF" stroke="none"/>
  </g>
  <g id="nets">
    <g id="nets-data">
      <g id="net-n_a">
        <path id="net-n_a-seg0" d="M42.61 35 L52.42 35" fill="none" stroke="#000000" stroke-width="1.2" stroke-linecap="butt" stroke-linejoin="miter"/>
        <path id="net-n_a-arrow0" d="M52.42 36.6 L56.92 35 L52.42 33.4 Z" fill="#000000" stroke="none"/>
        <path id="net-n_a-slash" d="M47.49 37.12 L51.73 32.88" fill="none" stroke="#000000" stroke-width="0.6"/>
        <text id="net-n_a-width" x="49.16" y="31.38" font-family="Arial, Arial, Helvetica, Arimo, sans-serif" font-size="7" fill="#000000">8</text>
      </g>
      <g id="net-n_b">
        <path id="net-n_b-seg0" d="M42.61 47 L52.42 47" fill="none" stroke="#000000" stroke-width="1.2" stroke-linecap="butt" stroke-linejoin="miter"/>
        <path id="net-n_b-arrow0" d="M52.42 48.6 L56.92 47 L52.42 45.4 Z" fill="#000000" stroke="none"/>
        <path id="net-n_b-slash" d="M47.49 49.12 L51.73 44.88" fill="none" stroke="#000000" stroke-width="0.6"/>
        <text id="net-n_b-width" x="49.16" y="43.38" font-family="Arial, Arial, Helvetica, Arimo, sans-serif" font-size="7" fill="#000000">8</text>
      </g>
      <g id="net-n_c">
        <path id="net-n_c-seg0" d="M42.61 59 L52.42 59" fill="none" stroke="#000000" stroke-width="1.2" stroke-linecap="butt" stroke-linejoin="miter"/>
        <path id="net-n_c-arrow0" d="M52.42 60.6 L56.92 59 L52.42 57.4 Z" fill="#000000" stroke="none"/>
        <path id="net-n_c-slash" d="M47.49 61.12 L51.73 56.88" fill="none" stroke="#000000" stroke-width="0.6"/>
        <text id="net-n_c-width" x="49.16" y="55.38" font-family="Arial, Arial, Helvetica, Arimo, sans-serif" font-size="7" fill="#000000">8</text>
      </g>
      <g id="net-n_d">
        <path id="net-n_d-seg0" d="M42.61 71 L52.42 71" fill="none" stroke="#000000" stroke-width="1.2" stroke-linecap="butt" stroke-linejoin="miter"/>
        <path id="net-n_d-arrow0" d="M52.42 72.6 L56.92 71 L52.42 69.4 Z" fill="#000000" stroke="none"/>
        <path id="net-n_d-slash" d="M47.49 73.12 L51.73 68.88" fill="none" stroke="#000000" stroke-width="0.6"/>
        <text id="net-n_d-width" x="49.16" y="67.38" font-family="Arial, Arial, Helvetica, Arimo, sans-serif" font-size="7" fill="#000000">8</text>
      </g>
      <g id="net-n_m">
        <path id="net-n_m-seg0" d="M61.92 53 L94.78 53" fill="none" stroke="#000000" stroke-width="1.2" stroke-linecap="butt" stroke-linejoin="miter"/>
        <path id="net-n_m-arrow0" d="M94.78 54.6 L99.28 53 L94.78 51.4 Z" fill="#000000" stroke="none"/>
        <path id="net-n_m-slash" d="M66.79 55.12 L71.04 50.88" fill="none" stroke="#000000" stroke-width="0.6"/>
        <text id="net-n_m-width" x="68.47" y="49.38" font-family="Arial, Arial, Helvetica, Arimo, sans-serif" font-size="7" fill="#000000">8</text>
      </g>
      <g id="net-n_r">
        <path id="net-n_r-seg0" d="M115.28 53 L130.42 53 L130.42 67 L146.18 67" fill="none" stroke="#000000" stroke-width="1.2" stroke-linecap="butt" stroke-linejoin="miter"/>
        <path id="net-n_r-seg1" d="M115.28 53 L130.92 53" fill="none" stroke="#000000" stroke-width="1.2" stroke-linecap="butt" stroke-linejoin="miter"/>
        <path id="net-n_r-arrow0" d="M146.18 68.6 L150.68 67 L146.18 65.4 Z" fill="#000000" stroke="none"/>
        <path id="net-n_r-arrow1" d="M130.92 54.6 L135.42 53 L130.92 51.4 Z" fill="#000000" stroke="none"/>
        <circle id="net-n_r-dot0" cx="130.42" cy="53" r="1.5" fill="#000000" stroke="none"/>
        <path id="net-n_r-slash" d="M120.16 55.12 L124.4 50.88" fill="none" stroke="#000000" stroke-width="0.6"/>
        <text id="net-n_r-width" x="121.83" y="49.38" font-family="Arial, Arial, Helvetica, Arimo, sans-serif" font-size="7" fill="#000000">8</text>
      </g>
      <g id="net-n_key">
        <path id="net-n_key-seg0" d="M125.42 78 L156.68 78 L156.68 77" fill="none" stroke="#000000" stroke-width="1.2" stroke-linecap="butt" stroke-linejoin="miter"/>
        <path id="net-n_key-arrow0" d="M158.28 77 L156.68 73 L155.08 77 Z" fill="#000000" stroke="none"/>
        <path id="net-n_key-slash" d="M130.3 80.12 L134.54 75.88" fill="none" stroke="#000000" stroke-width="0.6"/>
        <text id="net-n_key-width" x="131.97" y="86.44" font-family="Arial, Arial, Helvetica, Arimo, sans-serif" font-size="7" fill="#000000">8</text>
      </g>
      <g id="net-n_x">
        <path id="net-n_x-seg0" d="M162.68 67 L183.44 67" fill="none" stroke="#000000" stroke-width="1.2" stroke-linecap="butt" stroke-linejoin="miter"/>
        <path id="net-n_x-arrow0" d="M183.44 68.6 L187.94 67 L183.44 65.4 Z" fill="#000000" stroke="none"/>
        <path id="net-n_x-slash" d="M167.56 69.12 L171.8 64.88" fill="none" stroke="#000000" stroke-width="0.6"/>
        <text id="net-n_x-width" x="169.23" y="63.38" font-family="Arial, Arial, Helvetica, Arimo, sans-serif" font-size="7" fill="#000000">8</text>
      </g>
      <g id="net-n_y">
        <path id="net-n_y-seg0" d="M194.94 67 L200.44 67" fill="none" stroke="#000000" stroke-width="1.2" stroke-linecap="butt" stroke-linejoin="miter"/>
        <path id="net-n_y-arrow0" d="M200.44 68.6 L204.94 67 L200.44 65.4 Z" fill="#000000" stroke="none"/>
        <path id="net-n_y-slash" d="M195.7 69.12 L199.94 64.88" fill="none" stroke="#000000" stroke-width="0.6"/>
        <text id="net-n_y-width" x="197.37" y="63.38" font-family="Arial, Arial, Helvetica, Arimo, sans-serif" font-size="7" fill="#000000">8</text>
      </g>
    </g>
    <g id="nets-control">
      <g id="net-n_sel">
        <path id="net-n_sel-seg0" d="M42.61 23 L59.42 23 L59.42 24.5" fill="none" stroke="#000000" stroke-width="0.6" stroke-linecap="butt" stroke-linejoin="miter" stroke-dasharray="2 1.5"/>
        <path id="net-n_sel-arrow0" d="M57.82 24.5 L59.42 29 L61.02 24.5 Z" fill="#000000" stroke="none"/>
        <path id="net-n_sel-slash" d="M43.11 25.12 L47.35 20.88" fill="none" stroke="#000000" stroke-width="0.6"/>
        <text id="net-n_sel-width" x="44.79" y="19.38" font-family="Arial, Arial, Helvetica, Arimo, sans-serif" font-size="7" fill="#000000">2</text>
      </g>
      <g id="net-n_en">
        <path id="net-n_en-seg0" d="M79.13 14 L107.28 14 L107.28 36.5" fill="none" stroke="#000000" stroke-width="0.6" stroke-linecap="butt" stroke-linejoin="miter" stroke-dasharray="2 1.5"/>
        <path id="net-n_en-arrow0" d="M105.68 36.5 L107.28 41 L108.88 36.5 Z" fill="#000000" stroke="none"/>
      </g>
      <g id="net-n_vi">
        <path id="net-n_vi-seg0" d="M177.94 87 L182.94 87 L182.94 79 L183.94 79" fill="none" stroke="#000000" stroke-width="0.6" stroke-linecap="butt" stroke-linejoin="miter" stroke-dasharray="2 1.5"/>
        <path id="net-n_vi-arrow0" d="M183.94 80.6 L187.94 79 L183.94 77.4 Z" fill="#000000" stroke="none"/>
      </g>
      <g id="net-n_vo">
        <path id="net-n_vo-seg0" d="M194.94 79 L200.44 79" fill="none" stroke="#000000" stroke-width="0.6" stroke-linecap="butt" stroke-linejoin="miter" stroke-dasharray="2 1.5"/>
        <path id="net-n_vo-arrow0" d="M200.44 80.6 L204.94 79 L200.44 77.4 Z" fill="#000000" stroke="none"/>
      </g>
    </g>
  </g>
  <g id="datapath">
    <g id="ports">
      <g id="port-a">
        <text id="port-a-label" x="15.65" y="37.75" font-family="Arial, Arial, Helvetica, Arimo, sans-serif" font-size="8" fill="#000000">input A</text>
      </g>
      <g id="port-b">
        <text id="port-b-label" x="15.21" y="49.75" font-family="Arial, Arial, Helvetica, Arimo, sans-serif" font-size="8" fill="#000000">input B</text>
      </g>
      <g id="port-c">
        <text id="port-c-label" x="14.76" y="61.75" font-family="Arial, Arial, Helvetica, Arimo, sans-serif" font-size="8" fill="#000000">input C</text>
      </g>
      <g id="port-d">
        <text id="port-d-label" x="14.76" y="73.75" font-family="Arial, Arial, Helvetica, Arimo, sans-serif" font-size="8" fill="#000000">input D</text>
      </g>
      <g id="port-sel">
        <text id="port-sel-label" x="19.21" y="25.75" font-family="Arial, Arial, Helvetica, Arimo, sans-serif" font-size="8" fill="#000000">select</text>
      </g>
      <g id="port-en">
        <text id="port-en-label" x="52.61" y="16.75" font-family="Arial, Arial, Helvetica, Arimo, sans-serif" font-size="8" fill="#000000">enable</text>
      </g>
      <g id="port-key">
        <text id="port-key-label" x="89.13" y="80.75" font-family="Arial, Arial, Helvetica, Arimo, sans-serif" font-size="8" fill="#000000">mask key</text>
      </g>
      <g id="port-valid_i">
        <text id="port-valid_i-label" x="150.54" y="89.75" font-family="Arial, Arial, Helvetica, Arimo, sans-serif" font-size="8" fill="#000000">valid in</text>
      </g>
      <g id="port-r_q">
        <text id="port-r_q-label" x="137.92" y="55.75" font-family="Arial, Arial, Helvetica, Arimo, sans-serif" font-size="8" fill="#000000">register out</text>
      </g>
      <g id="port-y">
        <text id="port-y-label" x="207.44" y="69.75" font-family="Arial, Arial, Helvetica, Arimo, sans-serif" font-size="8" fill="#000000">output</text>
      </g>
      <g id="port-valid_o">
        <text id="port-valid_o-label" x="207.44" y="81.75" font-family="Arial, Arial, Helvetica, Arimo, sans-serif" font-size="8" fill="#000000">valid out</text>
      </g>
    </g>
    <g id="stage-0">
      <g id="mux-m0">
        <rect id="mux-m0-body" x="56.92" y="29" width="5" height="48" fill="#000000" stroke="none"/>
      </g>
      <g id="reg-r0">
        <rect id="reg-r0-body" x="99.28" y="41" width="16" height="24" fill="#D9D9D9" stroke="#000000" stroke-width="0.8"/>
        <path d="M104.28 65 L107.28 60.5 L110.28 65" fill="none" stroke="#000000" stroke-width="0.6"/>
      </g>
      <g id="xor-x0">
        <circle id="xor-x0-body" cx="156.68" cy="67" r="6" fill="#FFFFFF" stroke="#000000" stroke-width="0.8"/>
        <path id="xor-x0-op" d="M150.68 67 L162.68 67 M156.68 61 L156.68 73" fill="none" stroke="#000000" stroke-width="0.8"/>
      </g>
    </g>
    <g id="stage-1">
      <g id="preg-p1">
        <rect id="preg-p1-body" x="187.94" y="49" width="7" height="48" fill="#BFBFBF" stroke="#000000" stroke-width="0.8"/>
        <path d="M188.94 97 L191.44 93 L193.94 97" fill="none" stroke="#000000" stroke-width="0.6"/>
        <text id="preg-p1-label" x="181.97" y="47" font-family="Arial, Arial, Helvetica, Arimo, sans-serif" font-size="7" fill="#000000">S0|S1</text>
      </g>
    </g>
  </g>
</svg>
